<?xml version="1.0" standalone="no"?>
<!DOCTYPE svg PUBLIC "-//W3C//DTD SVG 20010904//EN"
 "http://www.w3.org/TR/2001/REC-SVG-20010904/DTD/svg10.dtd">
<svg version="1.0" xmlns="http://www.w3.org/2000/svg"
 width="785.000000pt" height="493.000000pt" viewBox="0 0 785.000000 493.000000"
 preserveAspectRatio="xMidYMid meet">
<metadata>
Created by potrace 1.15, written by Peter Selinger 2001-2017
</metadata>
<g transform="translate(0.000000,493.000000) scale(0.100000,-0.100000)"
fill="#000000" stroke="none">
<path d="M1175 4493 c-111 -23 -190 -66 -271 -147 -118 -118 -176 -273 -177
-471 -1 -139 23 -238 97 -390 88 -179 251 -387 431 -549 127 -115 172 -161
190 -197 25 -47 13 -77 -43 -102 -45 -21 -61 -22 -429 -25 l-383 -3 0 -405 0
-404 738 0 c820 0 801 -1 955 69 37 16 67 28 67 27 0 -2 -21 -34 -46 -72 -246
-367 -269 -809 -56 -1120 112 -166 329 -304 568 -364 183 -45 260 -53 577 -57
l307 -5 129 129 c75 75 168 181 224 258 l96 130 -487 5 -487 5 -50 24 c-29 14
-83 58 -130 105 -152 153 -196 299 -142 468 33 102 100 209 181 286 112 108
71 102 671 102 l520 0 83 76 c95 88 347 375 386 442 6 10 -156 12 -856 10
-788 -3 -868 -5 -923 -21 -82 -24 -206 -85 -286 -139 l-66 -46 23 57 c51 126
57 308 15 471 -64 245 -251 514 -532 765 -132 118 -169 164 -169 212 0 31 4
36 48 56 46 21 59 22 470 25 l422 4 0 404 0 404 -797 -1 c-668 0 -809 -3 -868
-16z"/>
<path d="M3237 3945 c-25 -19 -82 -79 -127 -132 -251 -299 -448 -715 -390
-824 15 -26 78 -25 132 2 23 12 98 61 167 109 210 146 211 146 230 52 21 -110
59 -132 161 -93 l50 19 0 -27 c0 -37 17 -51 60 -51 36 0 85 27 195 110 45 33
45 33 79 75 l25 30 1 -86 c0 -135 19 -169 95 -169 39 0 143 44 218 92 26 17
50 29 52 26 2 -2 -5 -37 -15 -78 -25 -97 -26 -176 -2 -188 42 -23 90 32 58 67
-12 13 -15 29 -10 65 4 26 12 49 18 51 6 2 70 11 141 20 72 9 178 29 237 44
94 23 105 24 97 9 -14 -26 -11 -91 6 -115 9 -13 34 -27 57 -33 77 -21 259 34
478 146 58 30 109 54 112 54 3 0 5 -41 4 -91 l-1 -90 34 -31 c31 -28 38 -30
85 -24 62 7 223 86 351 170 84 56 93 60 142 57 49 -2 55 1 98 40 25 23 48 39
51 36 11 -11 -7 -156 -21 -167 -7 -6 -49 -33 -94 -59 -284 -171 -481 -374
-481 -496 0 -52 43 -96 102 -102 179 -20 417 236 508 547 12 41 29 82 38 92
25 24 261 129 305 135 30 5 37 10 37 29 0 50 -52 38 -239 -56 -55 -27 -102
-50 -103 -50 -2 0 -2 40 0 89 5 148 -24 166 -120 75 -58 -56 -72 -59 -80 -19
-4 24 -42 32 -64 14 -9 -7 -14 -23 -11 -36 4 -19 -6 -32 -52 -67 -131 -100
-291 -185 -364 -193 -65 -7 -82 11 -82 89 1 86 30 165 70 185 47 25 202 142
293 222 96 85 228 245 266 323 56 114 42 175 -37 165 -126 -17 -399 -302 -520
-543 -20 -39 -47 -85 -61 -101 -14 -17 -26 -40 -26 -50 0 -16 -39 -40 -182
-112 -279 -139 -447 -175 -456 -98 -2 17 7 45 23 72 26 45 38 54 50 35 18 -28
119 2 167 50 43 43 49 79 18 110 -39 39 -95 22 -203 -58 -86 -64 -201 -106
-346 -126 -62 -9 -115 -16 -119 -16 -18 1 47 29 81 35 44 8 63 35 47 65 -15
28 -56 25 -135 -10 -77 -35 -76 -34 -69 -16 3 8 15 17 28 20 33 8 255 230 315
316 95 134 141 246 141 339 0 110 -59 135 -144 60 -91 -81 -281 -408 -353
-609 -29 -82 -33 -87 -99 -138 -123 -94 -248 -145 -271 -109 -4 6 -8 71 -8
142 0 129 0 130 -24 133 -14 2 -37 -7 -60 -26 -33 -26 -39 -28 -56 -16 -25 19
-79 18 -121 -2 -19 -9 -66 -47 -103 -85 -62 -62 -137 -109 -175 -109 -25 0
-47 38 -57 100 -14 86 -23 100 -64 100 -27 0 -69 -24 -202 -113 -177 -119
-222 -143 -249 -133 -13 5 -14 14 -9 49 12 72 30 103 62 110 47 9 180 104 277
197 135 130 253 319 286 458 32 135 -41 195 -143 117z m86 -76 c-5 -98 -155
-345 -279 -458 -86 -79 -179 -142 -198 -135 -14 5 -9 19 30 93 135 250 388
566 439 547 5 -2 9 -23 8 -47z m1360 -88 c-27 -140 -160 -334 -326 -473 l-48
-40 36 78 c84 185 202 380 282 465 58 62 71 54 56 -30z m1327 58 c0 -24 -65
-131 -126 -207 -35 -44 -101 -113 -146 -154 -82 -74 -237 -193 -243 -186 -5 6
80 145 142 230 124 170 373 382 373 317z m84 -906 c-9 -39 -52 -148 -82 -208
-61 -125 -183 -259 -269 -297 -91 -40 -173 -21 -173 39 0 67 99 192 240 304
78 62 267 188 283 189 4 0 4 -12 1 -27z"/>
<path d="M6075 2078 c-17 -12 -56 -52 -88 -89 -62 -73 -50 -68 -196 -84 -49
-6 -53 -4 -46 12 33 77 38 106 24 132 -39 70 -138 23 -309 -149 -129 -128
-194 -215 -284 -382 -25 -47 -53 -89 -61 -92 -9 -3 -15 -18 -15 -36 0 -22 -5
-30 -18 -30 -10 0 -31 -14 -48 -31 -45 -48 -104 -89 -130 -89 -20 0 -24 7 -29
48 -10 70 -14 80 -36 87 -20 7 -46 -7 -141 -69 l-28 -18 6 45 c6 43 5 47 -20
58 -21 10 -29 9 -43 -2 -10 -8 -35 -23 -56 -32 -21 -10 -63 -40 -92 -68 l-53
-50 -16 41 c-9 22 -16 56 -16 75 0 28 5 37 30 50 48 25 34 75 -21 75 -36 0
-79 -51 -79 -92 0 -19 -8 -37 -22 -49 -36 -30 -139 -99 -149 -99 -5 0 -9 22
-9 49 0 101 -32 125 -101 78 -61 -41 -60 -41 -48 -13 9 20 9 29 -1 41 -20 24
-59 19 -72 -10 -6 -14 -22 -28 -35 -31 -38 -10 -153 6 -230 32 -40 13 -79 21
-88 18 -23 -9 -64 -96 -72 -149 -7 -52 14 -85 54 -85 31 0 95 60 118 110 15
34 23 40 39 36 12 -3 58 -6 103 -6 l82 0 -9 -31 c-12 -42 3 -79 33 -79 12 0
53 24 92 56 66 52 70 54 73 32 7 -55 24 -88 47 -94 34 -8 55 1 131 56 l67 49
28 -60 29 -60 -25 -47 c-48 -91 -17 -160 56 -122 34 19 52 68 46 129 -5 50 -3
58 24 92 32 41 87 79 113 79 11 0 16 -9 16 -26 0 -70 61 -86 141 -36 24 15 49
31 56 35 8 5 16 -6 23 -32 25 -96 105 -94 217 4 l52 45 -10 -32 c-25 -90 -2
-186 50 -208 62 -25 198 26 382 145 38 25 71 45 73 45 2 0 -3 -23 -10 -52 -31
-117 -8 -219 52 -234 89 -22 256 51 457 201 70 52 129 95 132 95 2 0 2 -7 -1
-15 -9 -23 16 -84 42 -101 37 -25 78 -11 206 71 64 41 119 75 121 75 1 0 1
-15 -1 -33 -4 -39 17 -62 50 -53 13 3 50 28 83 55 33 27 63 47 67 45 5 -3 8
-20 8 -37 0 -45 25 -77 59 -77 16 0 51 16 84 40 30 22 58 40 61 40 3 0 6 -9 6
-19 0 -27 27 -51 56 -51 36 0 81 25 147 82 l57 49 0 -70 0 -70 -106 -92 c-189
-165 -294 -310 -294 -404 0 -54 29 -92 76 -101 125 -23 280 184 345 463 11 48
22 96 25 105 7 22 191 134 244 148 34 9 41 15 38 33 -6 44 -47 33 -162 -43
-58 -38 -109 -70 -111 -70 -3 0 -5 34 -5 75 0 79 -16 127 -45 139 -48 18 -140
-9 -179 -53 -11 -11 -24 -21 -30 -21 -7 0 -51 -29 -100 -65 -48 -36 -94 -65
-102 -65 -9 0 -14 19 -16 66 -4 80 -18 95 -68 74 -18 -7 -45 -24 -61 -37 l-27
-23 10 28 c6 16 8 36 5 46 -9 22 -64 22 -72 -1 -6 -19 -251 -184 -299 -203
-21 -8 -32 -7 -43 2 -19 16 -10 83 17 120 24 32 25 51 5 68 -19 16 -44 6 -91
-36 -197 -179 -406 -307 -524 -321 -47 -5 -50 -5 -60 23 -34 88 82 387 260
672 106 169 63 148 382 187 398 49 562 61 639 46 51 -10 63 -10 70 1 24 38
-10 48 -158 48 -141 0 -573 -38 -753 -66 l-35 -6 34 36 c27 27 40 34 58 30 30
-8 53 12 53 46 0 31 -27 60 -56 60 -11 0 -33 -10 -49 -22z m-549 -223 c16 -8
44 -15 62 -15 31 0 32 -1 21 -22 -34 -63 -300 -300 -392 -350 -47 -25 112 223
218 340 31 34 58 62 60 62 1 0 16 -7 31 -15z m295 -108 c-72 -118 -152 -272
-192 -371 -22 -53 -32 -64 -114 -123 -111 -80 -257 -153 -318 -160 -37 -4 -48
-2 -67 17 -20 20 -22 29 -17 91 6 68 37 159 55 159 5 0 60 37 123 82 126 92
304 258 364 341 l40 56 75 6 c41 3 82 8 90 9 8 2 18 4 22 5 4 0 -23 -50 -61
-112z m1413 -687 c-36 -157 -110 -306 -187 -377 -69 -64 -124 -69 -146 -15
-27 65 50 184 225 351 65 61 119 110 120 108 2 -2 -4 -32 -12 -67z"/>
</g>
</svg>
